<svg xmlns="http://www.w3.org/2000/svg" xmlns:graphite="https://graphite.art" viewBox="0 0 1024 1024" width="1024" height="1024"><defs><clipPath id="artboard-3035273094932819079"><rect x="0" y="0" width="1024" height="1024" /></clipPath><linearGradient id="11610453268816753455" gradientUnits="userSpaceOnUse" x1="0" y1="0" x2="1" y2="0" gradientTransform="matrix(-720.00466092,-711.037317494,711.037317494,-720.00466092,871.640698913,867.892802972)"><stop stop-color="#000000" /><stop offset="1" stop-color="#474040" /></linearGradient></defs><g>
<rect fill="#ffffff" fill-opacity="0" x="0" y="0" width="1024" height="1024"/>
<g clip-path="url(#artboard-3035273094932819079)">
	<g>
		<path d="M100,285.0000000000002 C100,182.9198161108826 182.91981611088238,100.00000000000023 285,100.00000000000023 L739,100.00000000000023 C841.0801838891176,100.00000000000023 924,182.9198161108826 924,285.0000000000002 L924,739.0000000000002 C924,841.0801838891178 841.0801838891176,924.0000000000002 739,924.0000000000002 L285,924.0000000000002 C182.91981611088238,924.0000000000002 100,841.0801838891178 100,739.0000000000002 L100,285.0000000000002 Z" fill="url(#11610453268816753455)"/>
	</g>
	<g>
		<path d="M358.08020334,618.12984083 C358.08020334,618.12984083 603.60690222,203.19853574 603.60690222,203.19853574 C603.60690222,203.19853574 787.3111637133378,561.8740887421621 911.8456709159134,805.0229567958056 C909.9416677849625,809.9968038718837 907.8289662628266,814.867869128201 905.5183131225008,819.6254057917622 C809.2215032588341,653.5185418695527 689.25575066,446.5840134 689.25575066,446.5840134 C689.25575066,446.5840134 592.90079616,542.9389679 592.90079616,542.9389679 C592.90079616,542.9389679 519.38553458,441.58783058 519.38553458,441.58783058 C519.38553458,441.58783058 354.51150132,655.70995169 354.51150132,655.70995169 C354.51150132,655.70995169 310.25959629,590.75957495 310.25959629,590.75957495 C310.25959629,590.75957495 272.43135490000003,639.2939224 272.43135490000003,639.2939224 C272.43135490000003,639.2939224 233.8893731,602.89316181 233.8893731,602.89316181 C233.8893731,602.89316181 154.47911518384853,754.7707042722526 119.4952563359007,821.6797239266507 C119.09779322382978,820.8865946998892 118.70586505476305,820.0902222575148 118.3195226724441,819.2906574432714 C160.11374431617222,726.4726568777547 274.57257611,472.27866794 274.57257611,472.27866794 C274.57257611,472.27866794 358.08020334,618.12984083 358.08020334,618.12984083 Z" fill="#ffffff" stroke-width="5" stroke="#ffffff"/>
	</g>
</g></g></svg>