<svg xmlns="http://www.w3.org/2000/svg" viewBox="0 0 1024 1024" width="1024" height="1024" role="img" aria-label="Cascade Chat">
  <defs>
    <linearGradient id="cascade-bg" x1="190" y1="166" x2="842" y2="872" gradientUnits="userSpaceOnUse">
      <stop stop-color="#474040"/>
      <stop offset="0.52" stop-color="#272323"/>
      <stop offset="1" stop-color="#080808"/>
    </linearGradient>
  </defs>

  <!-- macOS-style 824 px icon body on the 1024 px canvas. -->
  <path
    d="M285 100h454c102.08 0 185 82.92 185 185v454c0 102.08-82.92 185-185 185H285c-102.08 0-185-82.92-185-185V285c0-102.08 82.92-185 185-185Z"
    fill="url(#cascade-bg)"
  />

  <!-- A mountain ridge above cascading conversation/contour lines. -->
  <path
    d="m202 672 142-244 98 126 164-278 218 396"
    fill="none"
    stroke="#fff"
    stroke-width="58"
    stroke-linecap="round"
    stroke-linejoin="round"
  />
  <g fill="#fff">
    <rect x="278" y="720" width="374" height="42" rx="21" opacity="0.48"/>
    <rect x="350" y="778" width="302" height="42" rx="21" opacity="0.72"/>
    <rect x="430" y="836" width="222" height="42" rx="21"/>
    <circle cx="742" cy="836" r="25"/>
  </g>
</svg>
